<?xml version="1.0" encoding="utf-8"?>
<!-- Generator: Adobe Illustrator 23.0.4, SVG Export Plug-In . SVG Version: 6.00 Build 0)  -->
<svg version="1.1" id="Calque_1" xmlns="http://www.w3.org/2000/svg" xmlns:xlink="http://www.w3.org/1999/xlink" x="0px" y="0px"
	 viewBox="0 0 213 193" style="enable-background:new 0 0 213 193;" xml:space="preserve">
<style type="text/css">
	.st0{fill:#FFFFFF;}
	.st1{enable-background:new    ;}
	.st2{fill:#03BC82;}
</style>
<rect class="st0" width="213" height="193"/>
<g class="st1">
	<path class="st2" d="M45.1,147.4c0,0.2-0.1,0.5-0.3,0.6c-0.2,0.2-0.4,0.3-0.7,0.3c-0.2,0-0.3,0-0.5-0.1s-0.3-0.2-0.4-0.4l-1-2.2
		h-5.7l-1,2.2c-0.1,0.2-0.2,0.3-0.4,0.4s-0.3,0.1-0.5,0.1s-0.5-0.1-0.7-0.3s-0.3-0.4-0.3-0.6c0-0.1,0-0.3,0.1-0.4l4.5-9.6
		c0.1-0.2,0.2-0.4,0.4-0.5s0.4-0.2,0.6-0.2c0.2,0,0.4,0.1,0.6,0.2c0.2,0.1,0.4,0.3,0.4,0.5L45,147C45.1,147.2,45.1,147.3,45.1,147.4
		z M37.3,144h4.3l-2.1-4.8L37.3,144z"/>
	<path class="st2" d="M44.5,151.1c-0.2-0.1-0.3-0.3-0.3-0.6c0-0.4,0.3-0.7,0.8-0.7h0.4c0.4,0,0.6-0.1,0.8-0.3s0.3-0.5,0.3-0.9v-7.3
		c0-0.3,0.1-0.6,0.3-0.7c0.2-0.2,0.4-0.2,0.7-0.2s0.5,0.1,0.7,0.2c0.2,0.2,0.3,0.4,0.3,0.7v7.2c0,1.8-0.9,2.8-2.7,2.9h-0.4
		C45,151.2,44.7,151.2,44.5,151.1z M46.7,138.4c-0.2-0.2-0.3-0.5-0.3-0.8s0.1-0.6,0.3-0.8s0.5-0.3,0.9-0.3s0.6,0.1,0.9,0.3
		c0.2,0.2,0.3,0.5,0.3,0.8s-0.1,0.6-0.3,0.8s-0.5,0.3-0.9,0.3S46.9,138.6,46.7,138.4z"/>
	<path class="st2" d="M52.2,147.9c-0.6-0.3-1.1-0.8-1.4-1.4c-0.3-0.6-0.5-1.4-0.5-2.2s0.2-1.6,0.5-2.2c0.3-0.6,0.8-1.1,1.4-1.4
		c0.6-0.3,1.3-0.5,2.1-0.5s1.5,0.2,2.1,0.5s1.1,0.8,1.4,1.4c0.3,0.6,0.5,1.4,0.5,2.2s-0.2,1.6-0.5,2.2c-0.3,0.6-0.8,1.1-1.4,1.4
		s-1.3,0.5-2.1,0.5S52.8,148.2,52.2,147.9z M55.8,146.2c0.3-0.4,0.5-1.1,0.5-1.9c0-0.8-0.2-1.5-0.5-1.9s-0.8-0.7-1.5-0.7
		s-1.2,0.2-1.5,0.7c-0.4,0.4-0.5,1.1-0.5,1.9c0,0.8,0.2,1.5,0.5,1.9s0.8,0.7,1.5,0.7C54.9,146.8,55.5,146.6,55.8,146.2z"/>
	<path class="st2" d="M67.1,140.4c0.2,0.2,0.3,0.4,0.3,0.7v6.3c0,0.3-0.1,0.5-0.3,0.7c-0.2,0.2-0.4,0.3-0.7,0.3
		c-0.3,0-0.5-0.1-0.7-0.2c-0.2-0.2-0.3-0.4-0.3-0.7V147c-0.2,0.4-0.6,0.8-1,1s-0.9,0.3-1.4,0.3c-2,0-2.9-1.1-2.9-3.3v-4
		c0-0.3,0.1-0.5,0.3-0.7s0.4-0.3,0.7-0.3s0.6,0.1,0.7,0.3s0.3,0.4,0.3,0.7v4c0,0.6,0.1,1,0.3,1.3s0.6,0.4,1.1,0.4
		c0.6,0,1-0.2,1.4-0.6c0.3-0.4,0.5-0.9,0.5-1.5V141c0-0.3,0.1-0.5,0.3-0.7s0.4-0.3,0.7-0.3C66.6,140.1,66.9,140.2,67.1,140.4z"/>
	<path class="st2" d="M74.4,147.6c0,0.3-0.1,0.5-0.3,0.6c-0.2,0.1-0.5,0.2-0.9,0.2h-0.4c-1.8-0.1-2.7-1.1-2.7-2.9V142h-0.8
		c-0.3,0-0.5-0.1-0.7-0.2s-0.2-0.3-0.2-0.6c0-0.2,0.1-0.4,0.2-0.6s0.4-0.2,0.7-0.2H70v-1.5c0-0.3,0.1-0.5,0.3-0.7
		c0.2-0.2,0.4-0.3,0.7-0.3c0.3,0,0.5,0.1,0.7,0.3s0.3,0.4,0.3,0.7v1.5h1.4c0.3,0,0.5,0.1,0.7,0.2s0.2,0.3,0.2,0.6
		c0,0.2-0.1,0.4-0.2,0.6s-0.4,0.2-0.7,0.2H72v3.7c0,0.8,0.4,1.2,1.1,1.3h0.4C74.1,146.9,74.4,147.1,74.4,147.6z"/>
	<path class="st2" d="M82.2,146.3c0.1,0.1,0.2,0.3,0.2,0.6s-0.2,0.6-0.6,0.8s-0.8,0.4-1.3,0.5s-0.9,0.2-1.3,0.2
		c-1.3,0-2.3-0.4-3-1.1c-0.7-0.7-1.1-1.7-1.1-3c0-0.8,0.2-1.5,0.5-2.2c0.3-0.6,0.8-1.1,1.4-1.5c0.6-0.3,1.3-0.5,2-0.5
		s1.3,0.2,1.9,0.5c0.5,0.3,0.9,0.8,1.2,1.3c0.3,0.6,0.4,1.3,0.4,2c0,0.5-0.2,0.7-0.6,0.7H77c0.1,0.7,0.3,1.3,0.6,1.7
		c0.4,0.4,0.9,0.5,1.6,0.5c0.3,0,0.7,0,0.9-0.1c0.3-0.1,0.6-0.2,0.9-0.4s0.6-0.3,0.7-0.3C81.9,146.1,82.1,146.2,82.2,146.3z
		 M77.6,142.1c-0.3,0.3-0.5,0.8-0.6,1.5h3.7c0-0.7-0.2-1.2-0.5-1.5s-0.7-0.5-1.3-0.5C78.4,141.5,77.9,141.7,77.6,142.1z"/>
	<path class="st2" d="M89.2,140.3c0.2,0.1,0.2,0.4,0.2,0.6c0,0.3-0.1,0.5-0.2,0.7c-0.1,0.1-0.4,0.2-0.8,0.3h-0.5
		c-0.6,0.1-1.1,0.3-1.4,0.7s-0.4,0.8-0.4,1.4v3.4c0,0.3-0.1,0.6-0.3,0.7s-0.4,0.3-0.7,0.3c-0.3,0-0.5-0.1-0.7-0.3s-0.3-0.4-0.3-0.7
		v-6.3c0-0.3,0.1-0.5,0.3-0.7c0.2-0.2,0.4-0.2,0.7-0.2c0.3,0,0.5,0.1,0.7,0.2c0.2,0.2,0.3,0.4,0.3,0.7v0.7c0.2-0.5,0.5-0.8,0.9-1.1
		s0.9-0.4,1.4-0.4h0.2C88.8,140.1,89,140.2,89.2,140.3z"/>
	<path class="st2" d="M101.8,140.4c0.2,0.2,0.3,0.4,0.3,0.7v6.3c0,0.3-0.1,0.5-0.3,0.7c-0.2,0.2-0.4,0.3-0.7,0.3
		c-0.3,0-0.5-0.1-0.7-0.2c-0.2-0.2-0.3-0.4-0.3-0.7V147c-0.2,0.4-0.6,0.8-1,1s-0.9,0.3-1.4,0.3c-2,0-2.9-1.1-2.9-3.3v-4
		c0-0.3,0.1-0.5,0.3-0.7s0.4-0.3,0.7-0.3c0.3,0,0.6,0.1,0.7,0.3s0.3,0.4,0.3,0.7v4c0,0.6,0.1,1,0.3,1.3c0.2,0.3,0.6,0.4,1.1,0.4
		c0.6,0,1-0.2,1.4-0.6c0.3-0.4,0.5-0.9,0.5-1.5V141c0-0.3,0.1-0.5,0.3-0.7s0.4-0.3,0.7-0.3C101.3,140.1,101.6,140.2,101.8,140.4z"/>
	<path class="st2" d="M110.9,140.9c0.5,0.5,0.7,1.4,0.7,2.5v4c0,0.3-0.1,0.5-0.3,0.7c-0.2,0.2-0.4,0.3-0.7,0.3
		c-0.3,0-0.6-0.1-0.7-0.3s-0.3-0.4-0.3-0.7v-3.9c0-0.6-0.1-1.1-0.3-1.4c-0.2-0.3-0.6-0.4-1.1-0.4c-0.6,0-1.1,0.2-1.4,0.6
		s-0.5,0.9-0.5,1.5v3.6c0,0.3-0.1,0.5-0.3,0.7c-0.2,0.2-0.4,0.3-0.7,0.3s-0.6-0.1-0.7-0.3c-0.2-0.2-0.3-0.4-0.3-0.7v-6.3
		c0-0.3,0.1-0.5,0.3-0.7s0.4-0.3,0.7-0.3c0.3,0,0.5,0.1,0.7,0.3s0.3,0.4,0.3,0.7v0.4c0.3-0.4,0.6-0.8,1.1-1s1-0.4,1.5-0.4
		C109.7,140.1,110.4,140.4,110.9,140.9z"/>
	<path class="st2" d="M120.4,146.3c0.1,0.1,0.2,0.3,0.2,0.6s-0.2,0.6-0.6,0.8s-0.8,0.4-1.3,0.5s-0.9,0.2-1.3,0.2
		c-1.3,0-2.3-0.4-3-1.1c-0.7-0.7-1.1-1.7-1.1-3c0-0.8,0.2-1.5,0.5-2.2c0.3-0.6,0.8-1.1,1.4-1.5c0.6-0.3,1.3-0.5,2-0.5
		s1.3,0.2,1.9,0.5c0.5,0.3,0.9,0.8,1.2,1.3c0.3,0.6,0.4,1.3,0.4,2c0,0.5-0.2,0.7-0.6,0.7h-4.8c0.1,0.7,0.3,1.3,0.6,1.7
		c0.4,0.4,0.9,0.5,1.6,0.5c0.3,0,0.7,0,0.9-0.1c0.3-0.1,0.6-0.2,0.9-0.4s0.6-0.3,0.7-0.3C120.1,146.1,120.3,146.2,120.4,146.3z
		 M115.8,142.1c-0.3,0.3-0.5,0.8-0.6,1.5h3.7c0-0.7-0.2-1.2-0.5-1.5s-0.7-0.5-1.3-0.5C116.6,141.5,116.2,141.7,115.8,142.1z"/>
	<path class="st2" d="M126.8,138.4c-0.2-0.2-0.3-0.5-0.3-0.8s0.1-0.6,0.3-0.8s0.5-0.3,0.9-0.3s0.6,0.1,0.9,0.3s0.3,0.5,0.3,0.8
		s-0.1,0.6-0.3,0.8c-0.2,0.2-0.5,0.3-0.9,0.3S127.1,138.6,126.8,138.4z M127,148.1c-0.2-0.2-0.3-0.4-0.3-0.7v-6.3
		c0-0.3,0.1-0.6,0.3-0.7c0.2-0.2,0.4-0.2,0.7-0.2c0.3,0,0.5,0.1,0.7,0.2c0.2,0.2,0.3,0.4,0.3,0.7v6.3c0,0.3-0.1,0.6-0.3,0.7
		s-0.4,0.3-0.7,0.3C127.4,148.4,127.2,148.3,127,148.1z"/>
	<path class="st2" d="M142.3,140.9c0.5,0.5,0.7,1.3,0.7,2.5v4c0,0.3-0.1,0.6-0.3,0.7s-0.4,0.3-0.7,0.3s-0.5-0.1-0.7-0.3
		s-0.3-0.4-0.3-0.7v-4c0-0.6-0.1-1-0.3-1.3s-0.5-0.4-1-0.4s-1,0.2-1.3,0.5s-0.5,0.9-0.5,1.5v3.6c0,0.3-0.1,0.6-0.3,0.7
		c-0.2,0.2-0.4,0.3-0.7,0.3s-0.5-0.1-0.7-0.3s-0.3-0.4-0.3-0.7v-4c0-0.6-0.1-1-0.3-1.3s-0.5-0.4-1-0.4s-1,0.2-1.3,0.5
		s-0.5,0.9-0.5,1.5v3.6c0,0.3-0.1,0.6-0.3,0.7s-0.4,0.3-0.7,0.3s-0.5-0.1-0.7-0.3s-0.3-0.4-0.3-0.7v-6.3c0-0.3,0.1-0.5,0.3-0.7
		s0.4-0.2,0.7-0.2s0.5,0.1,0.7,0.2c0.2,0.2,0.3,0.4,0.3,0.7v0.4c0.2-0.4,0.6-0.8,1-1s0.9-0.3,1.4-0.3c1.2,0,2,0.5,2.4,1.5
		c0.2-0.5,0.6-0.8,1.1-1.1s1-0.4,1.6-0.4C141.2,140.1,141.8,140.4,142.3,140.9z"/>
	<path class="st2" d="M151,140.9c0.5,0.5,0.8,1.4,0.8,2.5v4c0,0.3-0.1,0.5-0.3,0.7s-0.4,0.3-0.7,0.3s-0.5-0.1-0.7-0.3
		s-0.3-0.4-0.3-0.7V147c-0.2,0.4-0.5,0.8-0.9,1s-0.9,0.4-1.4,0.4s-1-0.1-1.4-0.3s-0.8-0.5-1-0.9s-0.4-0.8-0.4-1.3
		c0-0.6,0.1-1,0.4-1.4c0.3-0.3,0.8-0.6,1.5-0.7c0.7-0.2,1.6-0.2,2.8-0.2h0.4v-0.4c0-0.5-0.1-0.9-0.3-1.2s-0.6-0.4-1.1-0.4
		c-0.3,0-0.6,0-1,0.1s-0.7,0.2-1.2,0.4c-0.3,0.1-0.5,0.2-0.6,0.2c-0.2,0-0.4-0.1-0.5-0.2c-0.1-0.1-0.2-0.3-0.2-0.6
		c0-0.2,0-0.3,0.1-0.5c0.1-0.1,0.2-0.3,0.5-0.4c0.4-0.2,0.8-0.4,1.4-0.5c0.5-0.1,1-0.2,1.6-0.2C149.6,140.1,150.4,140.4,151,140.9z
		 M149.3,146.4c0.3-0.4,0.5-0.8,0.5-1.4v-0.3h-0.3c-0.7,0-1.3,0-1.7,0.1s-0.7,0.2-0.9,0.3c-0.2,0.2-0.3,0.4-0.3,0.7s0.1,0.6,0.4,0.9
		c0.2,0.2,0.5,0.3,0.9,0.3C148.5,146.9,149,146.8,149.3,146.4z"/>
	<path class="st2" d="M161.3,140.4c0.2,0.2,0.3,0.4,0.3,0.7v6.4c0,1.2-0.3,2.2-1,2.8s-1.7,1-3.1,1c-1.2,0-2.2-0.2-3-0.7
		c-0.4-0.2-0.6-0.5-0.6-0.9c0-0.2,0.1-0.4,0.2-0.6c0.1-0.1,0.3-0.2,0.4-0.2c0.1,0,0.2,0,0.4,0.1c0.1,0,0.3,0.1,0.4,0.2
		c0.4,0.2,0.7,0.3,1,0.4c0.3,0.1,0.7,0.1,1.1,0.1c1.4,0,2.1-0.7,2.1-2.1v-1c-0.2,0.4-0.6,0.8-1,1c-0.5,0.2-1,0.4-1.6,0.4
		c-0.7,0-1.3-0.2-1.8-0.5s-1-0.8-1.3-1.4c-0.3-0.6-0.5-1.3-0.5-2.1s0.1-1.5,0.4-2.1c0.3-0.6,0.7-1.1,1.3-1.4
		c0.5-0.3,1.2-0.5,1.9-0.5c0.6,0,1.1,0.1,1.6,0.4c0.5,0.2,0.8,0.6,1,1V141c0-0.3,0.1-0.5,0.3-0.7s0.4-0.3,0.7-0.3
		C160.9,140.1,161.1,140.2,161.3,140.4z M159,145.8c0.4-0.4,0.5-1,0.5-1.7c0-0.8-0.2-1.3-0.5-1.8c-0.4-0.4-0.9-0.6-1.5-0.6
		s-1.1,0.2-1.5,0.6s-0.6,1-0.6,1.8c0,0.7,0.2,1.3,0.6,1.7c0.4,0.4,0.9,0.6,1.5,0.6C158.1,146.5,158.7,146.2,159,145.8z"/>
	<path class="st2" d="M170.4,146.3c0.1,0.1,0.2,0.3,0.2,0.6s-0.2,0.6-0.6,0.8c-0.4,0.2-0.8,0.4-1.3,0.5s-0.9,0.2-1.3,0.2
		c-1.3,0-2.3-0.4-3-1.1c-0.7-0.7-1.1-1.7-1.1-3c0-0.8,0.2-1.5,0.5-2.2c0.3-0.6,0.8-1.1,1.4-1.5c0.6-0.3,1.3-0.5,2-0.5
		s1.3,0.2,1.9,0.5s0.9,0.8,1.2,1.3c0.3,0.6,0.4,1.3,0.4,2c0,0.5-0.2,0.7-0.6,0.7h-4.8c0.1,0.7,0.3,1.3,0.6,1.7
		c0.4,0.4,0.9,0.5,1.6,0.5c0.3,0,0.7,0,0.9-0.1c0.3-0.1,0.6-0.2,0.9-0.4c0.3-0.2,0.6-0.3,0.7-0.3
		C170.2,146.1,170.3,146.2,170.4,146.3z M165.8,142.1c-0.3,0.3-0.5,0.8-0.6,1.5h3.7c0-0.7-0.2-1.2-0.5-1.5s-0.7-0.5-1.3-0.5
		C166.6,141.5,166.2,141.7,165.8,142.1z"/>
	<path class="st2" d="M182.5,139.2c0.1,0.1,0.2,0.3,0.2,0.5s-0.1,0.4-0.2,0.5c-0.1,0.1-0.3,0.2-0.5,0.2l-1.6-0.1l0.9,1.3
		c0.1,0.1,0.1,0.2,0.1,0.4s-0.1,0.3-0.2,0.5c-0.2,0.1-0.3,0.2-0.5,0.2s-0.4-0.1-0.6-0.3l-0.7-1.4l-0.7,1.4c-0.1,0.2-0.3,0.4-0.6,0.4
		c-0.2,0-0.4-0.1-0.5-0.2c-0.2-0.1-0.2-0.3-0.2-0.5c0-0.1,0-0.2,0.1-0.4l0.9-1.3l-1.6,0.1c-0.2,0-0.4-0.1-0.5-0.2
		c-0.1-0.1-0.2-0.3-0.2-0.5s0.1-0.4,0.2-0.5c0.1-0.1,0.3-0.2,0.5-0.2l1.6,0.1l-0.9-1.3c-0.1-0.1-0.1-0.2-0.1-0.4s0.1-0.3,0.2-0.5
		c0.2-0.1,0.3-0.2,0.5-0.2s0.4,0.1,0.6,0.3l0.7,1.4l0.7-1.4c0.1-0.2,0.3-0.4,0.6-0.4c0.2,0,0.4,0.1,0.5,0.2c0.2,0.1,0.2,0.3,0.2,0.5
		c0,0.1,0,0.2-0.1,0.4l-0.9,1.3l1.6-0.1C182.2,139,182.4,139,182.5,139.2z"/>
</g>
<g>
	<path class="st2" d="M140.5,99.2h-8.8v-8.8c0-1.9-1.6-3.5-3.5-3.5c-1.9,0-3.5,1.6-3.5,3.5v8.8h-8.8c-1.9,0-3.5,1.6-3.5,3.5
		s1.6,3.5,3.5,3.5h8.8v8.8c0,1.9,1.6,3.5,3.5,3.5c1.9,0,3.5-1.6,3.5-3.5v-8.8h8.8c1.9,0,3.5-1.6,3.5-3.5S142.4,99.2,140.5,99.2
		L140.5,99.2z M106.7,108.2L106.7,108.2H80.8c-1.9,0-3.5-1.6-3.5-3.5V55.5c0-1.9,1.6-3.5,3.5-3.5H130c1.9,0,3.5,1.6,3.5,3.5v25l0,0
		c0,0,0,0,0,0.1c0,1.9,1.6,3.5,3.5,3.5s3.5-1.6,3.5-3.5c0,0,0,0,0-0.1l0,0V52c0-3.9-3.2-7-7-7H77.3c-3.9,0-7,3.2-7,7v56.2
		c0,3.9,3.2,7,7,7h29.4l0,0c1.9,0,3.5-1.6,3.5-3.5C110.2,109.8,108.6,108.2,106.7,108.2L106.7,108.2z M106.7,97.9
		c1.6-2.9,4.6-4.9,8.2-4.9h3.7v-3.7c0-3.8,2.3-7.1,5.6-8.6v-0.2l0,0l-4.8-14.4l-16.6,21.5L98.3,80L80.7,97.9H106.7L106.7,97.9z
		 M98.4,67.8c0-2.9-2.3-5.3-5.3-5.3c-2.9,0-5.3,2.4-5.3,5.3s2.4,5.3,5.3,5.3C96,73.1,98.4,70.8,98.4,67.8L98.4,67.8z"/>
</g>
</svg>
