<?xml version="1.0" encoding="utf-8"?>
<!-- Generator: Adobe Illustrator 23.0.4, SVG Export Plug-In . SVG Version: 6.00 Build 0)  -->
<svg version="1.1" id="Calque_1" xmlns="http://www.w3.org/2000/svg" xmlns:xlink="http://www.w3.org/1999/xlink" x="0px" y="0px"
	 viewBox="0 0 213 193" style="enable-background:new 0 0 213 193;" xml:space="preserve">
<style type="text/css">
	.st0{fill:#FFFFFF;}
	.st1{fill:#03BC82;}
</style>
<rect class="st0" width="213" height="193"/>
<g>
	<path class="st1" d="M184.6,139h-20.4v-20.4c0-4.5-3.7-8.2-8.2-8.2c-4.5,0-8.2,3.7-8.2,8.2V139h-20.4c-4.5,0-8.2,3.7-8.2,8.2
		c0,4.5,3.7,8.2,8.2,8.2h20.4v20.4c0,4.5,3.7,8.2,8.2,8.2c4.5,0,8.2-3.7,8.2-8.2v-20.4h20.4c4.5,0,8.2-3.7,8.2-8.2
		C192.7,142.7,189.1,139,184.6,139L184.6,139z M106,160.1L106,160.1H45.8c-4.5,0-8.2-3.7-8.2-8.2V37.6c0-4.5,3.7-8.2,8.2-8.2h114.4
		c4.5,0,8.2,3.7,8.2,8.2v58.1l0,0c0,0,0,0.1,0,0.1c0,4.5,3.7,8.2,8.2,8.2c4.5,0,8.2-3.7,8.2-8.2c0,0,0-0.1,0-0.1l0,0V29.4
		c0-9-7.3-16.3-16.3-16.3H37.6c-9,0-16.3,7.3-16.3,16.3v130.7c0,9,7.3,16.3,16.3,16.3h68.3l0,0c4.5,0,8.1-3.7,8.1-8.2
		C114.1,163.7,110.4,160.1,106,160.1L106,160.1z M106,136c3.7-6.8,10.8-11.4,19-11.4h8.7v-8.7c0-8.9,5.3-16.5,13-19.9v-0.4h0
		l-11.1-33.5l-38.7,49.9L86.6,94.5L45.5,136H106L106,136z M86.7,66.2c0-6.8-5.5-12.3-12.3-12.3c-6.8,0-12.3,5.5-12.3,12.3
		s5.5,12.3,12.3,12.3C81.2,78.4,86.7,72.9,86.7,66.2L86.7,66.2z"/>
</g>
</svg>
